# xmcd
#
# Track frame offsets:
#	150
#	14943
#	31882
#	43197
#	56815
#	74020
#	91049
#	107834
#	122968
#	132911
#	147045
#	156319
#	169721
#
# Disc length: 2449 seconds
#
# Revision: 1
# Processed by: cddbd v1.5.2PL0 Copyright (c) Steve Scherf et al.
# Submitted via: audiograbber 1.83.01
#
DISCID=bf098f0d
DTITLE=Aaron Burnett - Call of the Wild
DYEAR=2001
DGENRE=Bluegrass
TTITLE0=Our Three Bears
TTITLE1=I'm a Wolf Hear My Howl
TTITLE2=King of the Woods
TTITLE3=Beaver in My Backyard
TTITLE4=Little Chipmunk
TTITLE5=Buffalo Run
TTITLE6=Call of the Wild
TTITLE7=Swimming With an Orca
TTITLE8=Canada Goose
TTITLE9=Porcupine
TTITLE10=Sammy the Skunk
TTITLE11=Bumblebee
TTITLE12=Gulp It's Hiss...tory
EXTD=Acoustic - Bluegrass music for the young and the slightly older
EXTT0=
EXTT1=
EXTT2=
EXTT3=
EXTT4=
EXTT5=
EXTT6=
EXTT7=
EXTT8=
EXTT9=
EXTT10=
EXTT11=
EXTT12=
PLAYORDER=
